<mxfile host="65bd71144e">
    <diagram id="iCZCCPanVgYZGfU6-MRA" name="Page-1">
        <mxGraphModel dx="768" dy="499" grid="1" gridSize="10" guides="1" tooltips="1" connect="1" arrows="1" fold="1" page="1" pageScale="1" pageWidth="850" pageHeight="1100" math="0" shadow="0">
            <root>
                <mxCell id="0"/>
                <mxCell id="1" parent="0"/>
                <mxCell id="3" value="User" style="rounded=0;whiteSpace=wrap;html=1;" parent="1" vertex="1">
                    <mxGeometry x="193" y="100" width="120" height="60" as="geometry"/>
                </mxCell>
                <mxCell id="4" value="&lt;h1&gt;&lt;font style=&quot;font-size: 20px;&quot;&gt;User Metadata&lt;/font&gt;&lt;/h1&gt;&lt;ul style=&quot;text-align: center;&quot;&gt;&lt;li style=&quot;text-align: left;&quot;&gt;Username&lt;/li&gt;&lt;li style=&quot;text-align: left;&quot;&gt;Password&lt;/li&gt;&lt;li style=&quot;text-align: left;&quot;&gt;Email&lt;/li&gt;&lt;li style=&quot;text-align: left;&quot;&gt;GoogleId&lt;/li&gt;&lt;li style=&quot;text-align: left;&quot;&gt;Avatar&lt;/li&gt;&lt;li style=&quot;text-align: left;&quot;&gt;UnitÃ  Misura preferite&lt;/li&gt;&lt;/ul&gt;" style="text;html=1;strokeColor=none;fillColor=none;spacing=5;spacingTop=-20;whiteSpace=wrap;overflow=hidden;rounded=0;" parent="1" vertex="1">
                    <mxGeometry x="313" y="30" width="187" height="180" as="geometry"/>
                </mxCell>
                <mxCell id="9" value="User" style="rounded=0;whiteSpace=wrap;html=1;" parent="1" vertex="1">
                    <mxGeometry x="163" y="230" width="120" height="60" as="geometry"/>
                </mxCell>
                <mxCell id="13" value="User" style="rounded=0;whiteSpace=wrap;html=1;" parent="1" vertex="1">
                    <mxGeometry x="173" y="240" width="120" height="60" as="geometry"/>
                </mxCell>
                <mxCell id="14" value="User" style="rounded=0;whiteSpace=wrap;html=1;" parent="1" vertex="1">
                    <mxGeometry x="183" y="250" width="120" height="60" as="geometry"/>
                </mxCell>
                <mxCell id="15" value="Recipe" style="rounded=0;whiteSpace=wrap;html=1;" parent="1" vertex="1">
                    <mxGeometry x="193" y="260" width="120" height="60" as="geometry"/>
                </mxCell>
                <mxCell id="17" value="&lt;h1&gt;&lt;font style=&quot;font-size: 20px;&quot;&gt;Recipe Metadata&lt;/font&gt;&lt;/h1&gt;&lt;ul style=&quot;text-align: center;&quot;&gt;&lt;li style=&quot;text-align: left;&quot;&gt;Title&lt;/li&gt;&lt;li style=&quot;text-align: left;&quot;&gt;UserId&lt;/li&gt;&lt;li style=&quot;text-align: left;&quot;&gt;Image&lt;/li&gt;&lt;li style=&quot;text-align: left;&quot;&gt;&lt;span style=&quot;background-color: initial;&quot;&gt;VideoLink&lt;/span&gt;&lt;br&gt;&lt;/li&gt;&lt;li style=&quot;text-align: left;&quot;&gt;&lt;span style=&quot;background-color: initial;&quot;&gt;Description&lt;/span&gt;&lt;/li&gt;&lt;li style=&quot;text-align: left;&quot;&gt;NrOfPortions&lt;/li&gt;&lt;li style=&quot;text-align: left;&quot;&gt;PreparationTime&lt;/li&gt;&lt;li style=&quot;text-align: left;&quot;&gt;&lt;span style=&quot;background-color: initial;&quot;&gt;Tags [ Ids ]&lt;/span&gt;&lt;br&gt;&lt;/li&gt;&lt;li style=&quot;text-align: left;&quot;&gt;&lt;span style=&quot;background-color: initial;&quot;&gt;? RecipeIngredients [ Ids ]&lt;/span&gt;&lt;/li&gt;&lt;li style=&quot;text-align: left;&quot;&gt;&lt;span style=&quot;background-color: initial;&quot;&gt;? Phases [ Ids ]&lt;/span&gt;&lt;/li&gt;&lt;li style=&quot;text-align: left;&quot;&gt;&lt;span style=&quot;background-color: initial;&quot;&gt;Private (true\false)&lt;/span&gt;&lt;/li&gt;&lt;/ul&gt;" style="text;html=1;strokeColor=none;fillColor=none;spacing=5;spacingTop=-20;whiteSpace=wrap;overflow=hidden;rounded=0;" parent="1" vertex="1">
                    <mxGeometry x="323" y="190" width="220" height="300" as="geometry"/>
                </mxCell>
                <mxCell id="18" value="Ingredient" style="rounded=0;whiteSpace=wrap;html=1;" parent="1" vertex="1">
                    <mxGeometry x="163" y="490" width="120" height="60" as="geometry"/>
                </mxCell>
                <mxCell id="19" value="Ingredient" style="rounded=0;whiteSpace=wrap;html=1;" parent="1" vertex="1">
                    <mxGeometry x="173" y="500" width="120" height="60" as="geometry"/>
                </mxCell>
                <mxCell id="20" value="Ingredient" style="rounded=0;whiteSpace=wrap;html=1;" parent="1" vertex="1">
                    <mxGeometry x="183" y="510" width="120" height="60" as="geometry"/>
                </mxCell>
                <mxCell id="43" style="edgeStyle=none;html=1;entryX=0;entryY=0.5;entryDx=0;entryDy=0;fontSize=20;" parent="1" source="21" target="42" edge="1">
                    <mxGeometry relative="1" as="geometry"/>
                </mxCell>
                <mxCell id="21" value="RecipeIngredient" style="rounded=0;whiteSpace=wrap;html=1;" parent="1" vertex="1">
                    <mxGeometry x="193" y="520" width="120" height="60" as="geometry"/>
                </mxCell>
                <mxCell id="23" value="&lt;h1&gt;&lt;font style=&quot;font-size: 20px;&quot;&gt;Recipe Ingredient Metadata&lt;/font&gt;&lt;/h1&gt;&lt;ul style=&quot;text-align: center;&quot;&gt;&lt;li style=&quot;text-align: left;&quot;&gt;IngredientId&lt;/li&gt;&lt;li style=&quot;text-align: left;&quot;&gt;MUId&lt;/li&gt;&lt;li style=&quot;text-align: left;&quot;&gt;&lt;span style=&quot;background-color: initial;&quot;&gt;Quantity&lt;/span&gt;&lt;br&gt;&lt;/li&gt;&lt;li style=&quot;text-align: left;&quot;&gt;&lt;span style=&quot;background-color: initial;&quot;&gt;Additional Info&lt;/span&gt;&lt;/li&gt;&lt;li style=&quot;text-align: left;&quot;&gt;RecipeId&lt;/li&gt;&lt;li style=&quot;text-align: left;&quot;&gt;PhaseId&lt;/li&gt;&lt;/ul&gt;" style="text;html=1;strokeColor=none;fillColor=none;spacing=5;spacingTop=-20;whiteSpace=wrap;overflow=hidden;rounded=0;" parent="1" vertex="1">
                    <mxGeometry x="315" y="480" width="220" height="200" as="geometry"/>
                </mxCell>
                <mxCell id="22" style="edgeStyle=none;html=1;entryX=0.5;entryY=0;entryDx=0;entryDy=0;fontSize=20;" parent="1" source="15" target="21" edge="1">
                    <mxGeometry relative="1" as="geometry"/>
                </mxCell>
                <mxCell id="24" value="Phase" style="rounded=0;whiteSpace=wrap;html=1;" parent="1" vertex="1">
                    <mxGeometry x="163" y="730" width="120" height="60" as="geometry"/>
                </mxCell>
                <mxCell id="26" value="Phase" style="rounded=0;whiteSpace=wrap;html=1;" parent="1" vertex="1">
                    <mxGeometry x="173" y="740" width="120" height="60" as="geometry"/>
                </mxCell>
                <mxCell id="27" value="Phase" style="rounded=0;whiteSpace=wrap;html=1;" parent="1" vertex="1">
                    <mxGeometry x="183" y="750" width="120" height="60" as="geometry"/>
                </mxCell>
                <mxCell id="46" style="edgeStyle=none;html=1;exitX=0.5;exitY=0;exitDx=0;exitDy=0;entryX=0.5;entryY=1;entryDx=0;entryDy=0;fontSize=20;" parent="1" source="28" target="21" edge="1">
                    <mxGeometry relative="1" as="geometry"/>
                </mxCell>
                <mxCell id="28" value="Phase" style="rounded=0;whiteSpace=wrap;html=1;" parent="1" vertex="1">
                    <mxGeometry x="193" y="760" width="120" height="60" as="geometry"/>
                </mxCell>
                <mxCell id="25" style="edgeStyle=none;html=1;exitX=0;exitY=0.5;exitDx=0;exitDy=0;entryX=0;entryY=0.5;entryDx=0;entryDy=0;fontSize=20;" parent="1" source="15" target="28" edge="1">
                    <mxGeometry relative="1" as="geometry">
                        <Array as="points">
                            <mxPoint x="28" y="290"/>
                            <mxPoint x="28" y="550"/>
                            <mxPoint x="28" y="790"/>
                        </Array>
                    </mxGeometry>
                </mxCell>
                <mxCell id="29" value="&lt;h1&gt;&lt;font style=&quot;font-size: 20px;&quot;&gt;Phase Metadata&lt;/font&gt;&lt;/h1&gt;&lt;ul style=&quot;text-align: center;&quot;&gt;&lt;li style=&quot;text-align: left;&quot;&gt;&lt;span style=&quot;background-color: initial;&quot;&gt;Description&lt;/span&gt;&lt;br&gt;&lt;/li&gt;&lt;li style=&quot;text-align: left;&quot;&gt;Image&lt;/li&gt;&lt;li style=&quot;text-align: left;&quot;&gt;RecipeIngredientsUsed [ Ids ]&lt;/li&gt;&lt;li style=&quot;text-align: left;&quot;&gt;RecipeId&lt;/li&gt;&lt;li style=&quot;text-align: left;&quot;&gt;Number&lt;/li&gt;&lt;/ul&gt;" style="text;html=1;strokeColor=none;fillColor=none;spacing=5;spacingTop=-20;whiteSpace=wrap;overflow=hidden;rounded=0;" parent="1" vertex="1">
                    <mxGeometry x="325.5" y="730" width="220" height="160" as="geometry"/>
                </mxCell>
                <mxCell id="32" value="&lt;h1&gt;&lt;font style=&quot;font-size: 20px;&quot;&gt;Tag Metadata&lt;/font&gt;&lt;/h1&gt;&lt;ul style=&quot;text-align: center;&quot;&gt;&lt;li style=&quot;text-align: left;&quot;&gt;Name&lt;/li&gt;&lt;li style=&quot;text-align: left;&quot;&gt;UserId (if personal)&lt;/li&gt;&lt;/ul&gt;" style="text;html=1;strokeColor=none;fillColor=none;spacing=5;spacingTop=-20;whiteSpace=wrap;overflow=hidden;rounded=0;" parent="1" vertex="1">
                    <mxGeometry x="325.5" y="900" width="220" height="130" as="geometry"/>
                </mxCell>
                <mxCell id="33" value="Phase" style="rounded=0;whiteSpace=wrap;html=1;" parent="1" vertex="1">
                    <mxGeometry x="163" y="900" width="120" height="60" as="geometry"/>
                </mxCell>
                <mxCell id="34" value="Phase" style="rounded=0;whiteSpace=wrap;html=1;" parent="1" vertex="1">
                    <mxGeometry x="173" y="910" width="120" height="60" as="geometry"/>
                </mxCell>
                <mxCell id="35" value="Phase" style="rounded=0;whiteSpace=wrap;html=1;" parent="1" vertex="1">
                    <mxGeometry x="183" y="920" width="120" height="60" as="geometry"/>
                </mxCell>
                <mxCell id="36" value="Tag" style="rounded=0;whiteSpace=wrap;html=1;" parent="1" vertex="1">
                    <mxGeometry x="193" y="930" width="120" height="60" as="geometry"/>
                </mxCell>
                <mxCell id="37" style="edgeStyle=none;html=1;entryX=0;entryY=0.5;entryDx=0;entryDy=0;fontSize=20;" parent="1" source="15" target="36" edge="1">
                    <mxGeometry relative="1" as="geometry">
                        <Array as="points">
                            <mxPoint x="28" y="290"/>
                            <mxPoint x="28" y="960"/>
                        </Array>
                    </mxGeometry>
                </mxCell>
                <mxCell id="49" style="edgeStyle=none;html=1;exitX=0.5;exitY=1;exitDx=0;exitDy=0;entryX=0.5;entryY=0;entryDx=0;entryDy=0;" parent="1" source="42" target="47" edge="1">
                    <mxGeometry relative="1" as="geometry"/>
                </mxCell>
                <mxCell id="42" value="Ingredient" style="rounded=0;whiteSpace=wrap;html=1;" parent="1" vertex="1">
                    <mxGeometry x="490" y="520" width="120" height="60" as="geometry"/>
                </mxCell>
                <mxCell id="44" value="&lt;h1&gt;&lt;font style=&quot;font-size: 20px;&quot;&gt;Ingredient Metadata&lt;/font&gt;&lt;/h1&gt;&lt;ul style=&quot;text-align: center;&quot;&gt;&lt;li style=&quot;text-align: left;&quot;&gt;&lt;span style=&quot;background-color: initial;&quot;&gt;Name&lt;/span&gt;&lt;br&gt;&lt;/li&gt;&lt;li style=&quot;text-align: left;&quot;&gt;Permitted Mu [ ids ]&amp;nbsp;&lt;/li&gt;&lt;li style=&quot;text-align: left;&quot;&gt;&lt;span style=&quot;background-color: initial;&quot;&gt;UserId (if personal)&lt;/span&gt;&lt;br&gt;&lt;/li&gt;&lt;/ul&gt;" style="text;html=1;strokeColor=none;fillColor=none;spacing=5;spacingTop=-20;whiteSpace=wrap;overflow=hidden;rounded=0;" parent="1" vertex="1">
                    <mxGeometry x="620" y="480" width="200" height="160" as="geometry"/>
                </mxCell>
                <mxCell id="47" value="Measurement Unit" style="rounded=0;whiteSpace=wrap;html=1;" parent="1" vertex="1">
                    <mxGeometry x="490" y="630" width="120" height="60" as="geometry"/>
                </mxCell>
                <mxCell id="48" value="&lt;h1&gt;&lt;font style=&quot;font-size: 20px;&quot;&gt;UmMetadata&lt;/font&gt;&lt;/h1&gt;&lt;ul style=&quot;text-align: center;&quot;&gt;&lt;li style=&quot;text-align: left;&quot;&gt;&lt;span style=&quot;background-color: initial;&quot;&gt;Name&lt;/span&gt;&lt;br&gt;&lt;/li&gt;&lt;li style=&quot;text-align: left;&quot;&gt;&lt;span style=&quot;background-color: initial;&quot;&gt;Tasso Di Conversione Verso unitÃ  standard scelta per il DB&lt;/span&gt;&lt;/li&gt;&lt;/ul&gt;" style="text;html=1;strokeColor=none;fillColor=none;spacing=5;spacingTop=-20;whiteSpace=wrap;overflow=hidden;rounded=0;" parent="1" vertex="1">
                    <mxGeometry x="620" y="620" width="200" height="160" as="geometry"/>
                </mxCell>
            </root>
        </mxGraphModel>
    </diagram>
</mxfile>